<?xml version="1.0" encoding="UTF-8"?>
<svg width="1200pt" height="1200pt" version="1.1" viewBox="0 0 1200 1200" xmlns="http://www.w3.org/2000/svg">
 <g>
  <path d="m825.45 836.16-112.95-26.082v-47.156c27.395-24.602 46.707-57.938 53.457-95.664 48.711-38.902 77.793-98.512 77.793-161v-71.062c0-29.156-20.832-53.512-48.395-59.023-46.199-80.961-137.77-125.32-231.02-110.89-13.539 2.082-26.645 5.5859-39.336 10.105v-154.69l75-42.863 75 42.863v123.05h37.5v-101.62l9.4492 5.3984 18.602-32.551-140.55-80.305-140.55 80.305 18.602 32.551 9.4492-5.3984v150.86c-59.945 35.211-103.12 97.707-111.05 168.68-7.0859 63.488 12.992 126.3 54.805 173.93v1.9102c0 49.801 21.824 94.5 56.25 125.42v47.156l-112.93 26.082c-77.027 17.758-130.82 85.367-130.82 164.42v180.68h712.5v-180.68c0-79.051-53.793-146.66-130.8-164.42zm-86.512 18.523-50.867 76.312-55.293-33.188 65.605-52.48zm-138.94 67.184 44.926 26.961-26.812 40.219 17.191 154.71h-70.613l17.195-154.73-26.812-40.219zm-186.3-456.02c9.1875-82.199 74.945-150.96 156.34-163.52 80.812-12.469 159.82 27.73 196.82 99.977l5.2305 10.199h11.457c12.508 0 22.688 10.18 22.688 22.688v71.062c0 38.699-13.648 76.07-37.52 105.79l-0.09375-115.03-25.914 10.707c-0.39062 0.18359-42.953 17.285-142.7 17.285s-142.31-17.102-142.61-17.23l-26.137-11.195v71.926c-15.168-31.5-21.523-66.957-17.551-102.66zm55.051 171.66v-87.488c24.508 5.7188 67.07 12.488 131.25 12.488s106.74-6.7695 131.25-12.488v87.488c0 72.355-58.875 131.25-131.25 131.25s-131.25-58.895-131.25-131.25zm131.25 168.75c26.961 0 52.367-6.5078 75-17.812v27.543l-75 60-75-60v-27.543c22.633 11.305 48.039 17.812 75 17.812zm-98.383 39.074 65.605 52.48-55.293 33.188-50.867-76.293zm-220.37 155.25c0-61.48 41.832-114.07 101.74-127.88l39.02-9 78.562 117.82 22.312-13.387 20.23 30.336-16.145 145.28h-133.22v-93.75h-37.5v93.75h-75zm637.5 143.18h-75v-93.75h-37.5v93.75h-133.22l-16.145-145.27 20.23-30.336 22.312 13.387 78.562-117.82 39.02 9c59.906 13.797 101.74 66.391 101.74 127.87z"/>
  <path d="m243.75 843.75h37.5v37.5h-37.5z"/>
  <path d="m168.75 77.832 75 42.863v685.55h37.5v-664.12l9.4492 5.3984 18.602-32.547-140.55-80.309-140.55 80.309 18.602 32.547 9.4492-5.3984v1039.1h37.5v-1060.6z"/>
  <path d="m150 131.25h37.5v900h-37.5z"/>
  <path d="m1106.2 1143.8h37.5v37.5h-37.5z"/>
  <path d="m918.75 806.25h37.5v37.5h-37.5z"/>
  <path d="m1171.8 321.23-140.55-80.309-140.55 80.309 18.602 32.547 9.4492-5.3984v420.38h37.5v-441.8l75-42.863 75 42.863v779.3h37.5v-757.88l9.4492 5.3984z"/>
  <path d="m1012.5 337.5h37.5v693.75h-37.5z"/>
  <path d="m581.25 131.25h37.5v93.75h-37.5z"/>
  <path d="m150 1068.8h37.5v37.5h-37.5z"/>
  <path d="m150 1143.8h37.5v37.5h-37.5z"/>
  <path d="m1012.5 1068.8h37.5v112.5h-37.5z"/>
 </g>
</svg>
