<?xml version="1.0" encoding="UTF-8"?>
<svg width="1200pt" height="1200pt" version="1.1" viewBox="0 0 1200 1200" xmlns="http://www.w3.org/2000/svg">
 <g>
  <path d="m1063.6 381.82h-245.45v-245.45c0-7.2344-2.875-14.168-7.9883-19.285-5.1172-5.1133-12.055-7.9883-19.285-7.9883h-654.55c-7.2344 0-14.168 2.875-19.285 7.9883-5.1133 5.1172-7.9883 12.051-7.9883 19.285v654.55c0 7.2305 2.875 14.168 7.9883 19.285 5.1172 5.1133 12.051 7.9883 19.285 7.9883h245.45v245.45c0 7.2344 2.875 14.168 7.9883 19.285 5.1172 5.1133 12.055 7.9883 19.285 7.9883h654.55c7.2344 0 14.168-2.875 19.285-7.9883 5.1133-5.1172 7.9883-12.051 7.9883-19.285v-654.55c0-7.2305-2.875-14.168-7.9883-19.285-5.1172-5.1133-12.051-7.9883-19.285-7.9883zm-900-218.18h600v600h-600zm872.73 872.73h-600v-218.18h354.55c7.2305 0 14.168-2.875 19.285-7.9883 5.1133-5.1172 7.9883-12.055 7.9883-19.285v-354.55h218.18z"/>
  <path d="m409.09 436.36c7.2773 0.03125 14.266-2.8359 19.422-7.9688 5.1602-5.1289 8.0625-12.102 8.0742-19.379 0.007812-7.2734-2.8789-14.254-8.0234-19.398-5.1445-5.1445-12.121-8.0312-19.398-8.0195-7.2734 0.007813-14.246 2.9141-19.379 8.0703-5.1289 5.1602-7.9961 12.148-7.9688 19.422 0.050782 7.2305 2.8828 14.168 7.9102 19.363 5.2305 4.9805 12.145 7.8047 19.363 7.9102z"/>
  <path d="m436.36 681.82v-27.27c0-9.7461-5.1992-18.75-13.637-23.621-8.4375-4.8711-18.832-4.8711-27.273 0-8.4375 4.8711-13.637 13.875-13.637 23.621v27.273-0.003906c0 9.7461 5.1992 18.75 13.637 23.621 8.4414 4.8711 18.836 4.8711 27.273 0s13.637-13.875 13.637-23.621z"/>
  <path d="m409.09 572.73c7.2344 0 14.172-2.8711 19.285-7.9883 5.1172-5.1133 7.9883-12.051 7.9883-19.285v-27.27c0-9.7461-5.1992-18.75-13.637-23.621s-18.832-4.8711-27.273 0c-8.4375 4.8711-13.637 13.875-13.637 23.621v27.273-0.003906c0 7.2344 2.875 14.172 7.9883 19.285 5.1172 5.1172 12.055 7.9883 19.285 7.9883z"/>
  <path d="m518.18 436.36h27.273-0.003906c9.7461 0 18.75-5.1992 23.621-13.637 4.8711-8.4375 4.8711-18.832 0-27.273-4.8711-8.4375-13.875-13.637-23.621-13.637h-27.27c-9.7461 0-18.75 5.1992-23.621 13.637-4.8711 8.4414-4.8711 18.836 0 27.273s13.875 13.637 23.621 13.637z"/>
  <path d="m654.55 436.36h27.273-0.003906c9.7461 0 18.75-5.1992 23.621-13.637s4.8711-18.832 0-27.273c-4.8711-8.4375-13.875-13.637-23.621-13.637h-27.27c-9.7461 0-18.75 5.1992-23.621 13.637-4.8711 8.4414-4.8711 18.836 0 27.273 4.8711 8.4375 13.875 13.637 23.621 13.637z"/>
 </g>
</svg>
