<?xml version="1.0" encoding="UTF-8"?>
<svg width="1200pt" height="1200pt" version="1.1" viewBox="0 0 1200 1200" xmlns="http://www.w3.org/2000/svg">
 <g>
  <path d="m468.75 1162.5h243.75c34.797-0.039062 68.16-13.879 92.766-38.484s38.445-57.969 38.484-92.766v-375c0-4.9727-1.9766-9.7422-5.4922-13.258-3.5156-3.5156-8.2852-5.4922-13.258-5.4922h-56.25v-581.25c0-4.9727-1.9766-9.7422-5.4922-13.258-3.5156-3.5156-8.2852-5.4922-13.258-5.4922h-168.75c-4.9727 0-9.7422 1.9766-13.258 5.4922-3.5156 3.5156-5.4922 8.2852-5.4922 13.258v581.25h-37.5v-300c0-2.3867-0.45312-4.7539-1.332-6.9766l-37.5-93.75c-1.8633-4.6719-5.5234-8.4023-10.164-10.348-4.6406-1.9492-9.8672-1.9492-14.508 0-4.6406 1.9453-8.3008 5.6758-10.164 10.348l-37.5 93.75c-0.87891 2.2227-1.332 4.5898-1.332 6.9766v300h-56.25c-4.9727 0-9.7422 1.9766-13.258 5.4922-3.5156 3.5156-5.4922 8.2852-5.4922 13.258v375c0.039062 34.797 13.879 68.16 38.484 92.766s57.969 38.445 92.766 38.484zm131.25-1087.5h131.25v37.5h-93.75v37.5h93.75v37.5h-56.25v37.5h56.25v37.5h-93.75v37.5h93.75v37.5h-56.25v37.5h56.25v37.5h-93.75v37.5h93.75v37.5h-56.25v37.5h56.25v37.5h-93.75v37.5h93.75v37.5h-131.25zm-112.5 329.74-37.5 37.5v-48.488h37.5zm-37.5 90.523 37.5-37.5v59.477l-37.5 37.5zm0-154.16 18.75-46.875 18.75 46.875v15.152h-37.5zm0 266.66 37.5-37.5v67.238h-37.5zm-75 67.238h431.25v356.25c-0.03125 24.855-9.918 48.684-27.492 66.258-17.574 17.574-41.402 27.461-66.258 27.492h-243.75c-24.855-0.03125-48.684-9.918-66.258-27.492-17.574-17.574-27.461-41.402-27.492-66.258z"/>
  <path d="m487.5 1068.8h205.07c15.066 0.13672 29.574-5.7109 40.34-16.254 10.766-10.547 16.91-24.93 17.09-39.996v-243.75c0-4.9727-1.9766-9.7422-5.4922-13.258-3.5156-3.5156-8.2852-5.4922-13.258-5.4922h-281.25c-4.9727 0-9.7422 1.9766-13.258 5.4922-3.5156 3.5156-5.4922 8.2852-5.4922 13.258v243.75c0 14.918 5.9258 29.227 16.477 39.773 10.547 10.551 24.855 16.477 39.773 16.477zm-18.75-56.25v-37.5h56.25v56.25h-37.5c-4.9727 0-9.7422-1.9766-13.258-5.4922-3.5156-3.5156-5.4922-8.2852-5.4922-13.258zm150-131.25v56.25h-56.25v-56.25zm-56.25-37.5v-56.25h56.25v56.25zm93.75 37.5h56.25v56.25h-56.25zm-131.25 56.25h-56.25v-56.25h56.25zm37.5 37.5h56.25v56.25h-56.25zm130.07 56.25h-36.32v-56.25h56.25v37.5c-0.28516 5.0859-2.5117 9.8672-6.2188 13.355-3.7109 3.4922-8.6211 5.4219-13.711 5.3945zm19.93-187.5h-56.25v-56.25h56.25zm-187.5-56.25v56.25h-56.25v-56.25z"/>
 </g>
</svg>
