<?xml version="1.0" encoding="UTF-8"?>
<svg width="1200pt" height="1200pt" version="1.1" viewBox="0 0 1200 1200" xmlns="http://www.w3.org/2000/svg">
 <g fill="none" stroke="#000" stroke-miterlimit="10" stroke-width="2">
  <path transform="matrix(23.529 0 0 23.529 -8.3593e-14 -8.3593e-14)" d="m37.2 4.2 9.8001-0.20005-0.20005 9.8001-31.2 31.2c-1.3001 1.3001-3.1 2-4.8 2s-3.4999-0.70009-4.8-2c-1.3001-1.3001-2-3.1-2-4.8s0.69992-3.4999 2-4.8z"/>
  <path transform="matrix(23.529 0 0 23.529 -8.3593e-14 -8.3593e-14)" d="m9.1999 32.2 9.6 9.6"/>
  <path transform="matrix(23.529 0 0 23.529 -8.3593e-14 -8.3593e-14)" d="m33.7 7.7 9.6 9.6"/>
  <path transform="matrix(23.529 0 0 23.529 -8.3593e-14 -8.3593e-14)" d="m14 37 24.5-24.5"/>
  <path transform="matrix(23.529 0 0 23.529 -8.3593e-14 -8.3593e-14)" d="m6.2 18.3 5.4-5.3"/>
  <path transform="matrix(23.529 0 0 23.529 -8.3593e-14 -8.3593e-14)" d="m10 22.2 5.4-5.4"/>
  <path transform="matrix(23.529 0 0 23.529 -8.3593e-14 -8.3593e-14)" d="m28.8 40.9 5.4-5.2999"/>
  <path transform="matrix(23.529 0 0 23.529 -8.3593e-14 -8.3593e-14)" d="m32.6 44.8 5.4-5.4"/>
  <path transform="matrix(23.529 0 0 23.529 -8.3593e-14 -8.3593e-14)" d="m36.4 24.2 13.1 13.2-12.1 12.1-13.2-13.1"/>
  <path transform="matrix(23.529 0 0 23.529 -8.3593e-14 -8.3593e-14)" d="m14.6 26.8-13.1-13.2 12.1-12.1 13.2 13.1"/>
 </g>
</svg>
