<?xml version="1.0" encoding="UTF-8"?>
<svg width="1200pt" height="1200pt" version="1.1" viewBox="0 0 1200 1200" xmlns="http://www.w3.org/2000/svg">
 <g>
  <path d="m468.75 618.75c-41.25 0-75 33.75-75 75s33.75 75 75 75 75-33.75 75-75-33.75-75-75-75zm0 112.5c-20.625 0-37.5-16.875-37.5-37.5s16.875-37.5 37.5-37.5 37.5 16.875 37.5 37.5-16.875 37.5-37.5 37.5z"/>
  <path d="m487.5 843.75c0 61.875 50.625 112.5 112.5 112.5s112.5-50.625 112.5-112.5c0-11.25-7.5-18.75-18.75-18.75h-187.5c-11.25 0-18.75 7.5-18.75 18.75zm185.62 18.75c-7.5 31.875-37.5 56.25-73.125 56.25s-63.75-24.375-73.125-56.25z"/>
  <path d="m806.25 693.75c0-41.25-33.75-75-75-75s-75 33.75-75 75 33.75 75 75 75 75-33.75 75-75zm-112.5 0c0-20.625 16.875-37.5 37.5-37.5s37.5 16.875 37.5 37.5-16.875 37.5-37.5 37.5-37.5-16.875-37.5-37.5z"/>
  <path d="m935.62 766.88c33.75-7.5 58.125-37.5 58.125-73.125s-24.375-63.75-56.25-73.125v-95.625c0-9.375-3.75-18.75-11.25-28.125-5.625-7.5-18.75-9.375-26.25-3.75-7.5 7.5-9.375 18.75-3.75 26.25 3.75 3.75 3.75 5.625 3.75 5.625 0 1.875-3.75 7.5-16.875 15-45 26.25-159.38 46.875-281.25 46.875h-1.875c-65.625 0-127.5-5.625-180-15-9.375-1.875-20.625 5.625-20.625 15 0 5.625 0 9.375 3.75 15 3.75 3.75 7.5 7.5 11.25 7.5 54.375 9.375 118.12 15 185.62 15 86.25 0 168.75-9.375 230.62-24.375 30-7.5 52.5-16.875 69.375-26.25v157.5c0 165-135 300-300 300s-300-135-300-300v-189.38c1.875-5.625 1.875-9.375 0-15v-1.875c0-1.875 3.75-7.5 15-15 16.875-11.25 45-18.75 78.75-26.25v41.25c0 9.375 9.375 18.75 18.75 18.75s18.75-9.375 18.75-18.75v-48.75c45-7.5 95.625-11.25 150-11.25v60c0 9.375 9.375 18.75 18.75 18.75s18.75-9.375 18.75-18.75v-60c54.375 0 105 5.625 150 11.25v48.75c0 9.375 9.375 18.75 18.75 18.75s18.75-9.375 18.75-18.75v-67.5l50.625-50.625c3.75-3.75 5.625-7.5 5.625-13.125v-18.75c0-11.25-9.375-18.75-18.75-18.75s-18.75 7.5-18.75 18.75v11.25l-18.75 18.75v-52.5c22.5-7.5 37.5-28.125 37.5-52.5 0-31.875-26.25-56.25-56.25-56.25-31.875 0-56.25 24.375-56.25 56.25 0 24.375 15 45 37.5 52.5v86.25c-45-7.5-97.5-11.25-150-11.25v-63.75l69.375-69.375c3.75-3.75 5.625-7.5 5.625-13.125v-41.25c22.5-7.5 37.5-28.125 37.5-52.5 0-31.875-26.25-56.25-56.25-56.25-31.875 0-56.25 24.375-56.25 56.25 0 24.375 15 45 37.5 52.5v33.75l-37.5 37.5v-11.25c0-5.625-1.875-9.375-5.625-13.125l-54.375-54.375c13.125-11.25 22.5-26.25 22.5-45 0-31.875-26.25-56.25-56.25-56.25-31.875 0-56.25 24.375-56.25 56.25 0 28.125 20.625 50.625 46.875 56.25l65.625 65.625v118.12c-45 0-88.125 3.75-127.5 9.375l28.125-28.125c3.75-3.75 5.625-7.5 5.625-13.125v-18.75c0-11.25-9.375-18.75-18.75-18.75s-18.75 7.5-18.75 18.75v11.25l-18.75 18.75v-52.5c22.5-7.5 37.5-28.125 37.5-52.5 0-31.875-26.25-56.25-56.25-56.25-31.875 0-56.25 24.375-56.25 56.25 0 24.375 15 45 37.5 52.5v15l-60-60c-7.5-7.5-18.75-7.5-26.25 0s-7.5 18.75 0 26.25l86.25 86.25v24.375c-7.5 1.875-16.875 3.75-24.375 5.625-31.875 7.5-56.25 16.875-73.125 28.125-13.125 5.625-33.75 20.625-33.75 45v95.625c-31.875 7.5-56.25 37.5-56.25 73.125s24.375 65.625 58.125 73.125c16.875 168.75 161.25 301.88 335.62 301.88s318.75-133.12 335.62-301.88zm20.625-73.125c0 13.125-7.5 26.25-18.75 31.875v-63.75c11.25 5.625 18.75 18.75 18.75 31.875zm-168.75-412.5c9.375 0 18.75 7.5 18.75 18.75 0 9.375-9.375 18.75-18.75 18.75s-18.75-9.375-18.75-18.75c0-11.25 9.375-18.75 18.75-18.75zm-112.5-112.5c9.375 0 18.75 7.5 18.75 18.75 0 9.375-9.375 18.75-18.75 18.75s-18.75-9.375-18.75-18.75c0-11.25 9.375-18.75 18.75-18.75zm-150 0c9.375 0 18.75 7.5 18.75 18.75 0 9.375-9.375 18.75-18.75 18.75s-18.75-9.375-18.75-18.75c0-11.25 9.375-18.75 18.75-18.75zm-112.5 112.5c9.375 0 18.75 7.5 18.75 18.75 0 9.375-9.375 18.75-18.75 18.75s-18.75-9.375-18.75-18.75c0-11.25 9.375-18.75 18.75-18.75zm-168.75 412.5c0-13.125 7.5-26.25 18.75-31.875v63.75c-11.25-5.625-18.75-18.75-18.75-31.875z"/>
  <path d="m853.12 455.62c-9.375-3.75-20.625 3.75-22.5 13.125-1.875 5.625-1.875 9.375 1.875 15 1.875 3.75 5.625 7.5 11.25 9.375h5.625c7.5 0 15-5.625 18.75-13.125 0-9.375-5.625-20.625-15-24.375z"/>
  <path d="m350.62 555c-9.375-3.75-20.625 1.875-24.375 11.25-1.875 5.625-1.875 9.375 1.875 15 1.875 3.75 5.625 7.5 11.25 9.375h5.625c7.5 0 15-5.625 18.75-13.125 1.875-9.375-3.75-18.75-13.125-22.5z"/>
 </g>
</svg>
